<svg width="256" height="256" viewBox="0 0 256 256" fill="none" xmlns="http://www.w3.org/2000/svg">
  <rect width="256" height="256" rx="56" fill="#06090A"/>
  <circle cx="128" cy="128" r="78" fill="url(#paint0_radial)"/>
  <g fill="#C7D0DC">
    <circle cx="98" cy="106" r="6"/><circle cx="116" cy="100" r="5"/><circle cx="136" cy="102" r="6"/>
    <circle cx="155" cy="108" r="5"/><circle cx="88" cy="124" r="5"/><circle cx="108" cy="121" r="6"/>
    <circle cx="128" cy="121" r="5"/><circle cx="147" cy="124" r="6"/><circle cx="166" cy="127" r="5"/>
    <circle cx="98" cy="140" r="5"/><circle cx="117" cy="140" r="6"/><circle cx="136" cy="140" r="5"/>
    <circle cx="154" cy="141" r="6"/><circle cx="108" cy="157" r="5"/><circle cx="127" cy="158" r="6"/>
    <circle cx="146" cy="157" r="5"/>
  </g>
  <ellipse cx="104" cy="86" rx="40" ry="21" fill="url(#paint1_linear)" opacity="0.42"/>
  <defs>
    <radialGradient id="paint0_radial" cx="0" cy="0" r="1" gradientUnits="userSpaceOnUse" gradientTransform="translate(101 89) rotate(49) scale(121)">
      <stop stop-color="#FFFFFF"/>
      <stop offset="0.65" stop-color="#E9F0F8"/>
      <stop offset="1" stop-color="#BCC8D6"/>
    </radialGradient>
    <linearGradient id="paint1_linear" x1="71" y1="73" x2="144" y2="113" gradientUnits="userSpaceOnUse">
      <stop stop-color="white"/>
      <stop offset="1" stop-color="white" stop-opacity="0"/>
    </linearGradient>
  </defs>
</svg>
