<svg width="256" height="256" viewBox="0 0 256 256" fill="none" xmlns="http://www.w3.org/2000/svg">
  <rect width="256" height="256" rx="56" fill="#08090B"/>
  <circle cx="128" cy="128" r="78" fill="url(#paint0_radial)"/>
  <path d="M79 74C62 96 62 160 79 182" stroke="#D53B3B" stroke-width="4"/>
  <path d="M177 74C194 96 194 160 177 182" stroke="#D53B3B" stroke-width="4"/>
  <path d="M77 86L88 94M73 98L86 107M71 112L84 121M70 126L83 135M71 140L84 149M73 154L86 163M77 167L88 175" stroke="#D53B3B" stroke-width="3"/>
  <path d="M179 86L168 94M183 98L170 107M185 112L172 121M186 126L173 135M185 140L172 149M183 154L170 163M179 167L168 175" stroke="#D53B3B" stroke-width="3"/>
  <ellipse cx="102" cy="86" rx="39" ry="21" fill="url(#paint1_linear)" opacity="0.45"/>
  <defs>
    <radialGradient id="paint0_radial" cx="0" cy="0" r="1" gradientUnits="userSpaceOnUse" gradientTransform="translate(102 89) rotate(49) scale(121)">
      <stop stop-color="#FFFFFF"/>
      <stop offset="0.65" stop-color="#E6EDF7"/>
      <stop offset="1" stop-color="#BFC9D7"/>
    </radialGradient>
    <linearGradient id="paint1_linear" x1="70" y1="74" x2="141" y2="113" gradientUnits="userSpaceOnUse">
      <stop stop-color="white"/>
      <stop offset="1" stop-color="white" stop-opacity="0"/>
    </linearGradient>
  </defs>
</svg>
