<svg width="256" height="256" viewBox="0 0 256 256" fill="none" xmlns="http://www.w3.org/2000/svg">
  <rect width="256" height="256" rx="56" fill="#0A0608"/>
  <path d="M75 157C66 145 66 126 75 113L89 97C96 90 108 89 116 95C123 100 126 110 122 119L114 138C111 147 116 157 125 160L146 167C156 170 162 180 160 190C158 201 148 208 137 207L101 203C90 202 80 196 75 187V157Z" fill="url(#paint0_radial)"/>
  <path d="M180 157C189 145 189 126 180 113L166 97C159 90 147 89 139 95C132 100 129 110 133 119L141 138C144 147 139 157 130 160L109 167C99 170 93 180 95 190C97 201 107 208 118 207L154 203C165 202 175 196 180 187V157Z" fill="url(#paint1_radial)"/>
  <path d="M109 167L130 160" stroke="#FBA3B1" stroke-width="4" stroke-linecap="round"/>
  <ellipse cx="100" cy="120" rx="20" ry="10" fill="url(#paint2_linear)" opacity="0.5"/>
  <ellipse cx="156" cy="120" rx="20" ry="10" fill="url(#paint2_linear)" opacity="0.45"/>
  <defs>
    <radialGradient id="paint0_radial" cx="0" cy="0" r="1" gradientUnits="userSpaceOnUse" gradientTransform="translate(92 102) rotate(53) scale(117)">
      <stop stop-color="#FF7B94"/>
      <stop offset="0.6" stop-color="#DE3E62"/>
      <stop offset="1" stop-color="#8D1E3B"/>
    </radialGradient>
    <radialGradient id="paint1_radial" cx="0" cy="0" r="1" gradientUnits="userSpaceOnUse" gradientTransform="translate(163 102) rotate(127) scale(117)">
      <stop stop-color="#FF8AA0"/>
      <stop offset="0.6" stop-color="#E24669"/>
      <stop offset="1" stop-color="#901E3D"/>
    </radialGradient>
    <linearGradient id="paint2_linear" x1="82" y1="111" x2="118" y2="129" gradientUnits="userSpaceOnUse">
      <stop stop-color="white"/>
      <stop offset="1" stop-color="white" stop-opacity="0"/>
    </linearGradient>
  </defs>
</svg>
