<svg width="256" height="256" viewBox="0 0 256 256" fill="none" xmlns="http://www.w3.org/2000/svg">
  <rect width="256" height="256" rx="56" fill="#060A08"/>
  <circle cx="128" cy="128" r="78" fill="url(#paint0_radial)"/>
  <polygon points="128,84 146,97 139,118 117,118 110,97" fill="#141414"/>
  <polygon points="96,118 117,118 124,140 108,156 88,145" fill="#141414"/>
  <polygon points="160,118 139,118 132,140 148,156 168,145" fill="#141414"/>
  <polygon points="124,140 132,140 140,164 128,176 116,164" fill="#141414"/>
  <polygon points="117,118 139,118 132,140 124,140" fill="#E9EEF5"/>
  <circle cx="128" cy="128" r="76" stroke="rgba(255,255,255,0.16)" stroke-width="2"/>
  <ellipse cx="102" cy="86" rx="39" ry="21" fill="url(#paint1_linear)" opacity="0.42"/>
  <defs>
    <radialGradient id="paint0_radial" cx="0" cy="0" r="1" gradientUnits="userSpaceOnUse" gradientTransform="translate(102 89) rotate(49) scale(121)">
      <stop stop-color="#FFFFFF"/>
      <stop offset="0.62" stop-color="#DFE8F4"/>
      <stop offset="1" stop-color="#AAB8CC"/>
    </radialGradient>
    <linearGradient id="paint1_linear" x1="70" y1="74" x2="140" y2="112" gradientUnits="userSpaceOnUse">
      <stop stop-color="white"/>
      <stop offset="1" stop-color="white" stop-opacity="0"/>
    </linearGradient>
  </defs>
</svg>
